<?xml version="1.0" standalone="no"?>
<!DOCTYPE svg PUBLIC "-//W3C//DTD SVG 20010904//EN"
 "http://www.w3.org/TR/2001/REC-SVG-20010904/DTD/svg10.dtd">
<svg version="1.0" xmlns="http://www.w3.org/2000/svg"
 width="512.000000pt" height="512.000000pt" viewBox="0 0 512.000000 512.000000"
 preserveAspectRatio="xMidYMid meet">

<g transform="translate(0.000000,512.000000) scale(0.100000,-0.100000)"
fill="#000000" stroke="none">
<path d="M2444 5068 c-147 -77 -255 -157 -380 -282 -66 -67 -141 -153 -166
-191 -52 -80 -109 -192 -127 -247 l-13 -38 -93 0 c-52 0 -118 -5 -147 -11 -76
-16 -205 -80 -264 -133 -160 -141 -236 -373 -190 -580 10 -43 16 -80 13 -82
-2 -2 -30 -11 -62 -19 -196 -52 -361 -216 -421 -420 -32 -113 -20 -277 30
-396 5 -12 0 -18 -19 -23 -52 -13 -151 -66 -202 -108 -194 -160 -267 -414
-188 -655 l26 -78 -70 -72 c-179 -185 -220 -448 -106 -679 19 -40 55 -94 80
-122 l45 -50 0 -87 c0 -167 57 -303 174 -420 117 -116 262 -175 429 -175 79 0
80 -1 122 -38 116 -108 303 -165 463 -142 145 20 254 75 354 176 l60 61 67
-25 c89 -33 257 -42 350 -17 184 48 339 184 407 358 15 37 28 67 28 67 1 0 29
-10 61 -21 82 -30 236 -37 327 -15 38 9 101 32 140 52 134 67 264 228 299 369
6 28 13 51 14 52 0 2 24 -6 52 -17 106 -40 271 -44 383 -9 136 43 277 160 342
285 57 109 72 173 72 301 0 111 0 112 24 118 43 11 175 79 253 131 162 107
366 343 469 541 49 94 49 136 3 173 -37 29 -83 25 -155 -15 -206 -113 -431
-33 -758 269 -58 53 -133 115 -167 138 -35 22 -63 43 -63 46 0 2 20 37 45 76
57 93 145 279 178 381 63 190 107 444 107 611 0 82 -1 87 -30 116 l-31 30
-192 -5 c-144 -4 -217 -10 -292 -27 -212 -45 -409 -128 -576 -242 l-96 -65
-32 53 c-45 75 -126 161 -160 169 -59 13 -121 -35 -121 -94 0 -27 10 -49 41
-86 61 -76 88 -121 115 -193 65 -171 49 -382 -48 -637 -29 -78 -104 -235 -112
-235 -2 0 -33 13 -68 30 -34 16 -69 30 -75 30 -20 0 -15 18 16 63 87 129 121
320 86 488 -19 91 -83 228 -120 257 -40 32 -89 29 -126 -7 -39 -40 -38 -81 5
-171 48 -99 63 -190 48 -286 -7 -41 -17 -85 -23 -96 -11 -20 -14 -16 -35 40
-33 89 -82 159 -158 229 l-67 61 10 39 c61 235 -42 508 -242 641 -47 31 -46
46 9 155 66 133 167 258 289 360 l60 50 6 -81 c4 -50 13 -91 23 -107 38 -58
123 -56 163 4 20 30 22 41 16 105 -7 84 11 158 58 241 33 59 35 74 13 116 -13
26 -64 59 -92 59 -5 0 -44 -19 -88 -42z m1614 -1100 c-26 -278 -120 -554 -265
-776 l-54 -84 -52 9 c-84 13 -273 5 -370 -15 l-89 -19 130 131 c79 80 132 142
136 159 12 51 -32 112 -84 118 -50 5 -67 -6 -182 -118 -115 -112 -121 -116
-114 -83 21 108 28 198 23 302 l-6 117 35 30 c53 47 172 124 252 165 165 83
395 141 578 145 l70 1 -8 -82z m-297 -1080 c94 -35 148 -69 231 -146 304 -279
523 -402 720 -402 31 0 59 -4 62 -8 7 -12 -87 -125 -155 -186 -73 -67 -207
-153 -291 -188 -68 -29 -70 -29 -83 -10 -80 114 -167 183 -291 233 -68 27 -95
32 -189 36 -73 3 -127 -1 -160 -10 l-49 -13 -81 81 c-98 99 -187 149 -313 175
l-86 17 59 23 c38 14 92 24 146 27 132 8 219 -23 328 -119 57 -50 108 -53 152
-9 57 58 32 129 -73 207 -123 91 -236 128 -388 126 -107 -2 -186 -19 -279 -63
-35 -16 -65 -28 -66 -27 -22 34 -45 78 -45 87 0 29 297 150 457 185 107 24
309 16 394 -16z"/>
<path d="M3623 3743 c-29 -6 -73 -51 -74 -77 -3 -58 14 -90 58 -111 45 -22 97
-6 124 39 23 38 24 58 3 97 -12 24 -72 64 -86 58 -2 -1 -13 -4 -25 -6z"/>
<path d="M2544 4440 c-30 -12 -64 -58 -64 -87 0 -94 111 -142 172 -74 40 45
38 93 -6 137 -34 34 -61 41 -102 24z"/>
</g>
</svg>
